<svg aria-hidden="true" style="position: absolute; width: 0; height: 0; overflow: hidden;" version="1.1" xmlns="http://www.w3.org/2000/svg">
<defs>
<symbol id="icon-1" viewBox="0 0 52 52">
<circle cx="26" cy="26" r="23.5" fill="#7A3145" stroke="#D4BFC4" stroke-width="5"/>
<path d="M27.9766 19.9043V33H25.6211V22.2158H25.542L22.4834 24.1758V21.9961L25.7354 19.9043H27.9766Z" fill="#FBFBFB"/>
</symbol>
<symbol id="icon-2" viewBox="0 0 52 52">
<circle cx="26" cy="26" r="23.5" fill="#7A3145" stroke="#D4BFC4" stroke-width="5"/>
<path d="M20.8174 33V31.2949L25.3701 26.8301C25.7979 26.3906 26.1553 26.001 26.4424 25.6611C26.7354 25.3213 26.9551 24.9932 27.1016 24.6768C27.248 24.3545 27.3213 24.0117 27.3213 23.6484C27.3213 23.2383 27.2275 22.8838 27.04 22.585C26.8525 22.2861 26.5947 22.0576 26.2666 21.8994C25.9443 21.7412 25.5752 21.6621 25.1592 21.6621C24.7256 21.6621 24.3477 21.75 24.0254 21.9258C23.7031 22.1016 23.4512 22.3506 23.2695 22.6729C23.0938 22.9951 23.0059 23.3789 23.0059 23.8242H20.7559C20.7559 22.998 20.9434 22.2803 21.3184 21.6709C21.6992 21.0557 22.2236 20.5781 22.8916 20.2383C23.5596 19.8984 24.3242 19.7285 25.1855 19.7285C26.0703 19.7285 26.8438 19.8926 27.5059 20.2207C28.168 20.5488 28.6836 21 29.0527 21.5742C29.4219 22.1426 29.6064 22.793 29.6064 23.5254C29.6064 24.0176 29.5127 24.501 29.3252 24.9756C29.1377 25.4443 28.8066 25.9688 28.332 26.5488C27.8633 27.123 27.2041 27.8174 26.3545 28.6318L24.1045 30.9258V31.0225H29.7998V33H20.8174Z" fill="#FBFBFB"/>
</symbol>
<symbol id="icon-3" viewBox="0 0 52 52">
<circle cx="26" cy="26" r="23.5" fill="#7A3145" stroke="#D4BFC4" stroke-width="5"/>
<path d="M25.5195 33.1758C24.5996 33.1758 23.7822 33.0205 23.0674 32.71C22.3525 32.3936 21.7871 31.9541 21.3711 31.3916C20.9609 30.8291 20.7471 30.1787 20.7295 29.4404H23.1201C23.1377 29.7979 23.252 30.1084 23.4629 30.3721C23.6797 30.6299 23.9668 30.832 24.3242 30.9785C24.6816 31.1191 25.0801 31.1895 25.5195 31.1895C25.9883 31.1895 26.4014 31.1074 26.7588 30.9434C27.1221 30.7734 27.4062 30.5449 27.6113 30.2578C27.8164 29.9648 27.9189 29.6279 27.9189 29.2471C27.9189 28.8486 27.8135 28.4971 27.6025 28.1924C27.3975 27.8877 27.0986 27.6504 26.7061 27.4805C26.3135 27.3105 25.8418 27.2256 25.291 27.2256H24.1221V25.3975H25.291C25.7363 25.3975 26.1318 25.3184 26.4775 25.1602C26.8232 25.002 27.0928 24.7822 27.2861 24.501C27.4795 24.2139 27.5762 23.8799 27.5762 23.499C27.5762 23.1299 27.4912 22.8076 27.3213 22.5322C27.1572 22.2568 26.9229 22.043 26.6182 21.8906C26.3135 21.7383 25.9561 21.6621 25.5459 21.6621C25.1475 21.6621 24.7754 21.7354 24.4297 21.8818C24.0898 22.0225 23.8145 22.2246 23.6035 22.4883C23.3984 22.752 23.29 23.0684 23.2783 23.4375H21.002C21.0137 22.7051 21.2217 22.0605 21.626 21.5039C22.0361 20.9473 22.584 20.5137 23.2695 20.2031C23.9551 19.8867 24.7227 19.7285 25.5723 19.7285C26.4395 19.7285 27.1953 19.8926 27.8398 20.2207C28.4902 20.543 28.9912 20.9795 29.3428 21.5303C29.7002 22.0811 29.8789 22.6875 29.8789 23.3496C29.8789 24.0879 29.6621 24.7061 29.2285 25.2041C28.7949 25.7021 28.2236 26.0303 27.5146 26.1885V26.2852C28.4287 26.4141 29.1289 26.7539 29.6152 27.3047C30.1074 27.8555 30.3535 28.541 30.3535 29.3613C30.3535 30.0938 30.1455 30.75 29.7295 31.3301C29.3135 31.9043 28.7422 32.3555 28.0156 32.6836C27.2891 33.0117 26.457 33.1758 25.5195 33.1758Z" fill="#FBFBFB"/>
</symbol>
</defs>
</svg>